<?xml version="1.0" encoding="utf-8"?>
<!-- Generator: Adobe Illustrator 16.0.3, SVG Export Plug-In . SVG Version: 6.00 Build 0)  -->
<!DOCTYPE svg PUBLIC "-//W3C//DTD SVG 1.1//EN" "http://www.w3.org/Graphics/SVG/1.1/DTD/svg11.dtd">
<svg version="1.1" id="Layer_1" xmlns="http://www.w3.org/2000/svg" xmlns:xlink="http://www.w3.org/1999/xlink" x="0px" y="0px"
	 width="50px" height="51.806px" viewBox="214.499 212.915 50 51.806" enable-background="new 214.499 212.915 50 51.806"
	 xml:space="preserve">
<path fill="#9E9EAB" d="M259.355,222.975l-14.711-8.792c-2.83-1.691-7.46-1.691-10.29,0l-14.711,8.792
	c-2.829,1.691-5.145,5.765-5.145,9.052v15.938c0,3.287,2.315,7.36,5.145,9.051l12.889,7.705c-0.102-2.541-0.181-4.52-0.181-4.52
	c-2.543,0-4.808-0.885-5.032-2.904c-0.224-2.02-0.34-0.72-0.789-11.492c-0.436-10.463,12.859-10.267,12.859-10.267h0.322
	c0,0,13.322-0.196,12.886,10.267c-0.449,10.772-0.553,9.473-0.777,11.492c-0.223,2.021-2.481,2.904-5.024,2.904
	c0,0-0.077,1.93-0.176,4.426l12.733-7.611c2.83-1.689,5.146-5.764,5.146-9.051v-15.938
	C264.5,228.739,262.186,224.666,259.355,222.975z M239.565,233.495c-3.525,0-6.384-2.858-6.384-6.384
	c0-3.526,2.858-6.384,6.384-6.384s6.384,2.858,6.384,6.384C245.949,230.637,243.091,233.495,239.565,233.495z"/>
</svg>
