<?xml version="1.0" encoding="utf-8"?>
<!-- Generator: Adobe Illustrator 16.0.3, SVG Export Plug-In . SVG Version: 6.00 Build 0)  -->
<!DOCTYPE svg PUBLIC "-//W3C//DTD SVG 1.1//EN" "http://www.w3.org/Graphics/SVG/1.1/DTD/svg11.dtd">
<svg version="1.1" id="Layer_1" xmlns="http://www.w3.org/2000/svg" xmlns:xlink="http://www.w3.org/1999/xlink" x="0px" y="0px"
	  viewBox="0 0 52 88"  xml:space="preserve">
<path fill="#E8E8EF" d="M51.995,46.75V13.312L29.938,0h-7.812L0.012,13.25L0.01,46.703l24.544,14.714v27.267L22.422,90h7.188
	l-1.99-1.332V61.447L51.995,46.75z M26,58.562L1.582,44V16.591L26,2l24.473,14.561v27.414L26,58.562z"/>
<g>
	<g>
		<path fill="#EBEBF1" d="M26.001,2.383l24.037,14.423L51,16.262l-0.464-0.28L26.496,1.559l-0.495-0.297V2.383z"/>
	</g>
</g>
<g>
	<g>
		<path fill="#DEDEE5" d="M51,44.274v-0.545V16.807v-0.545l-0.962,0.545V43.73L51,44.274z"/>
	</g>
</g>
<g>
	<g>
		<path fill="#CFCFD9" d="M26.003,59.275l0.493-0.297l24.04-14.424L51,44.274l-0.962-0.545L26.003,58.154V59.275L26.003,59.275z"/>
	</g>
</g>
<g>
	<g>
		<path fill="#DEDEE5" d="M26.001,58.154L1.962,43.729l-0.961,0.545l0.468,0.28l24.038,14.424l0.494,0.297V58.154z"/>
	</g>
</g>
<g>
	<g>
		<path fill="#F2F2F4" d="M1.962,43.729V16.807l-0.961-0.545v0.545V43.73v0.545L1.962,43.729z"/>
	</g>
</g>
<g>
	<g>
		<path fill="#F6F6F8" d="M26.001,1.262L26.001,1.262l-0.496,0.297L1.467,15.982l-0.466,0.28l0.961,0.545L26.001,2.383V1.262z"/>
	</g>
</g>
<g>
	<polygon fill="#DEDEE5" points="28.844,90 30.713,90 27.957,88.396 26.999,88.941 27.463,89.221 	"/>
</g>
<g>
	<g>
		<path fill="#F2F2F4" d="M27.957,88.396V61.641l-0.958-0.545v0.545v26.756v0.545L27.957,88.396z"/>
	</g>
</g>
<g>
	<g>
		<path fill="#F7F7FA" d="M51.995,46.096L51.995,46.096L51.5,46.393L27.461,60.814l-0.462,0.279l0.958,0.545l24.038-14.423V46.096z"
			/>
	</g>
</g>
<g>
	<g>
		<path fill="#EBEBF1" d="M0.01,47.217l24.037,14.424l0.962-0.545l-0.464-0.281L0.505,46.393L0.01,46.096V47.217z"/>
	</g>
</g>
<g>
	<g>
		<path fill="#DEDEE5" d="M25.009,88.941v-0.545V61.641v-0.545l-0.962,0.545v26.756L25.009,88.941z"/>
	</g>
</g>
<polygon fill="#CFCFD9" points="23.195,90 24.545,89.221 25.009,88.941 24.047,88.396 21.324,90 "/>
<polygon fill="#DEDEE5" points="30.699,0 28.832,0 51.501,13.604 51.995,13.9 51.995,12.779 "/>
<polygon fill="#CFCFD9" points="21.305,0 0.012,12.779 0.012,13.9 0.505,13.604 23.176,0 "/>
</svg>
