<?xml version="1.0" encoding="utf-8"?>
<!-- Generator: Adobe Illustrator 16.0.3, SVG Export Plug-In . SVG Version: 6.00 Build 0)  -->
<!DOCTYPE svg PUBLIC "-//W3C//DTD SVG 1.1//EN" "http://www.w3.org/Graphics/SVG/1.1/DTD/svg11.dtd">
<svg version="1.1" id="Layer_1" xmlns="http://www.w3.org/2000/svg" xmlns:xlink="http://www.w3.org/1999/xlink" x="0px" y="0px"
	 width="480px" height="480px" viewBox="0 0 480 480" enable-background="new 0 0 480 480" xml:space="preserve">
<linearGradient id="SVGID_1_" gradientUnits="userSpaceOnUse" x1="121.9976" y1="370.8076" x2="277.4191" y2="196.1">
	<stop  offset="0" style="stop-color:#000000;stop-opacity:0.5"/>
	<stop  offset="1" style="stop-color:#000000;stop-opacity:0"/>
</linearGradient>
<path opacity="0.5" fill="url(#SVGID_1_)" d="M367.217,112.176l-84.088-48.91c-12.321-7.113-27.998-11.022-44.721-11.022
	c-16.721,0-32.549,3.91-44.859,11.022l-82.628,48.91C85.679,126.75,68,161.009,68,190.155v97.82
	c0,29.146,17.754,63.405,43.003,77.979l83.706,48.903c12.311,7.114,27.798,11.028,44.515,11.028
	c16.721,0,32.456-3.914,44.766-11.028l83.354-48.903C392.592,351.381,411,317.122,411,287.976v-97.82
	C411,161.009,392.46,126.75,367.217,112.176z"/>
<g>
	<linearGradient id="SVGID_2_" gradientUnits="userSpaceOnUse" x1="335.8066" y1="102.5776" x2="312.4854" y2="138.728">
		<stop  offset="0" style="stop-color:#000000;stop-opacity:0.3"/>
		<stop  offset="1" style="stop-color:#000000;stop-opacity:0"/>
	</linearGradient>
	<path fill="url(#SVGID_2_)" d="M371.361,122.511l-89.079-52.772l27.53,73.775c18.807-8.214,61.706-20.398,77.458-4.903
		C382.978,131.503,377.619,125.815,371.361,122.511z"/>
</g>
<g>
	<linearGradient id="SVGID_3_" gradientUnits="userSpaceOnUse" x1="170.1719" y1="85.3823" x2="195.8286" y2="125.6132">
		<stop  offset="0" style="stop-color:#000000;stop-opacity:0.3"/>
		<stop  offset="1" style="stop-color:#000000;stop-opacity:0"/>
	</linearGradient>
	<path fill="url(#SVGID_3_)" d="M206.203,65.769l-90.839,49.688l77.493,13.968c2.532-20.375,13.939-63.48,35.307-69.126
		C219.854,60.371,212.232,62.078,206.203,65.769z"/>
</g>
<g>
	<linearGradient id="SVGID_4_" gradientUnits="userSpaceOnUse" x1="68.9409" y1="223.5776" x2="116.7476" y2="224.7426">
		<stop  offset="0" style="stop-color:#000000;stop-opacity:0.3"/>
		<stop  offset="1" style="stop-color:#000000;stop-opacity:0"/>
	</linearGradient>
	<path fill="url(#SVGID_4_)" d="M69.226,182.767l-1.88,103.521l50.545-60.382c-16.436-12.292-48.222-43.569-42.535-64.92
		C71.303,168.23,69.01,175.701,69.226,182.767z"/>
</g>
<g>
	<linearGradient id="SVGID_5_" gradientUnits="userSpaceOnUse" x1="135.75" y1="376.085" x2="163.7327" y2="338.1894">
		<stop  offset="0" style="stop-color:#000000;stop-opacity:0.3"/>
		<stop  offset="1" style="stop-color:#000000;stop-opacity:0"/>
	</linearGradient>
	<path fill="url(#SVGID_5_)" d="M101.485,354.398l88.073,54.438l-26.14-74.285c-18.968,7.861-62.077,19.237-77.542,3.454
		C90.038,345.19,95.294,350.974,101.485,354.398z"/>
</g>
<g>
	<linearGradient id="SVGID_6_" gradientUnits="userSpaceOnUse" x1="306.6367" y1="391.4238" x2="287.9808" y2="349.4454">
		<stop  offset="0" style="stop-color:#000000;stop-opacity:0.3"/>
		<stop  offset="1" style="stop-color:#000000;stop-opacity:0"/>
	</linearGradient>
	<path fill="url(#SVGID_6_)" d="M271.661,412.224l90.541-50.221l-77.577-13.508c-2.407,20.387-13.556,63.566-34.889,69.345
		C258.04,417.709,265.65,415.96,271.661,412.224z"/>
</g>
<g>
	<linearGradient id="SVGID_7_" gradientUnits="userSpaceOnUse" x1="402.9658" y1="257.4658" x2="355.1568" y2="256.8816">
		<stop  offset="0" style="stop-color:#000000;stop-opacity:0.3"/>
		<stop  offset="1" style="stop-color:#000000;stop-opacity:0"/>
	</linearGradient>
	<path fill="url(#SVGID_7_)" d="M404.06,298.339l2.992-103.49l-51.202,59.825c16.31,12.479,47.76,44.103,41.826,65.394
		C401.82,312.858,404.19,305.416,404.06,298.339z"/>
</g>
<linearGradient id="SVGID_8_" gradientUnits="userSpaceOnUse" x1="123.8145" y1="54.625" x2="56.1841" y2="224.8708">
	<stop  offset="0" style="stop-color:#1010A6"/>
	<stop  offset="0.7231" style="stop-color:#6666CC"/>
	<stop  offset="0.7257" style="stop-color:#6666CC"/>
	<stop  offset="0.8512" style="stop-color:#7272D0"/>
	<stop  offset="0.9792" style="stop-color:#7676D1"/>
</linearGradient>
<path fill="url(#SVGID_8_)" d="M31.266,120.685c17.854-31.14,50.88-48.512,95.533-50.221c30.14-1.156,54.772,5.118,55.849,5.394
	c0,0-20.967,12.268-44.563,25.938c-17.645,10.214-38.893,18.5-56.622,47.251c-18.423,29.864,16.8,84.031,30.744,100.592
	L69.5,285.809c-0.778-0.911-19.135-22.692-33.265-52.03C15.388,190.497,13.687,151.394,31.266,120.685z"/>
<linearGradient id="SVGID_9_" gradientUnits="userSpaceOnUse" x1="343.8438" y1="49.0088" x2="154.9354" y2="73.4967">
	<stop  offset="0" style="stop-color:#1010A6"/>
	<stop  offset="0.7231" style="stop-color:#6666CC"/>
	<stop  offset="0.7257" style="stop-color:#6666CC"/>
	<stop  offset="0.8512" style="stop-color:#7272D0"/>
	<stop  offset="0.9792" style="stop-color:#7676D1"/>
</linearGradient>
<path fill="url(#SVGID_9_)" d="M238.188,0.552c35.887,0,67.374,20.027,91.066,57.921c15.985,25.571,22.787,50.074,23.087,51.146
	c0,0-21.075-12.101-44.666-25.778c-17.626-10.227-35.385-24.548-69.152-25.646c-35.068-1.132-64.555,56.364-71.992,76.697
	l-52.622-19.087c0.413-1.126,10.184-27.872,28.613-54.718C169.728,21.487,202.802,0.552,238.188,0.552z"/>
<linearGradient id="SVGID_10_" gradientUnits="userSpaceOnUse" x1="453.5479" y1="233.9722" x2="345.1006" y2="90.5417">
	<stop  offset="0" style="stop-color:#1010A6"/>
	<stop  offset="0.7231" style="stop-color:#6666CC"/>
	<stop  offset="0.7257" style="stop-color:#6666CC"/>
	<stop  offset="0.8512" style="stop-color:#7272D0"/>
	<stop  offset="0.9792" style="stop-color:#7676D1"/>
</linearGradient>
<path fill="url(#SVGID_10_)" d="M444.089,118.32c18.167,30.966,16.812,68.255-3.902,107.849
	c-13.981,26.721-31.673,44.983-32.445,45.779c0,0-0.234-24.284-0.354-51.557c-0.096-20.38,3.281-42.941-12.854-72.625
	c-16.747-30.835-81.265-27.194-102.557-23.326l-10.153-55.051c1.173-0.21,29.193-5.311,61.687-2.984
	C391.427,69.834,426.205,87.796,444.089,118.32z"/>
<linearGradient id="SVGID_11_" gradientUnits="userSpaceOnUse" x1="350.5176" y1="425.0518" x2="423.9765" y2="248.4008">
	<stop  offset="0" style="stop-color:#1010A6"/>
	<stop  offset="0.7231" style="stop-color:#6666CC"/>
	<stop  offset="0.7257" style="stop-color:#6666CC"/>
	<stop  offset="0.8512" style="stop-color:#7272D0"/>
	<stop  offset="0.9792" style="stop-color:#7676D1"/>
</linearGradient>
<path fill="url(#SVGID_11_)" d="M445.479,357.571c-17.854,31.146-50.88,48.51-95.539,50.222
	c-30.134,1.162-54.778-5.113-55.837-5.395c0,0,20.948-12.268,44.552-25.937c17.644-10.208,38.887-18.495,56.627-47.252
	c18.43-29.858-16.812-84.032-30.744-100.587l42.713-36.169c0.772,0.91,19.129,22.686,33.26,52.029
	C461.352,287.766,463.059,326.868,445.479,357.571z"/>
<linearGradient id="SVGID_12_" gradientUnits="userSpaceOnUse" x1="133.8091" y1="428.3506" x2="321.5509" y2="405.0276">
	<stop  offset="0" style="stop-color:#1010A6"/>
	<stop  offset="0.7231" style="stop-color:#6666CC"/>
	<stop  offset="0.7257" style="stop-color:#6666CC"/>
	<stop  offset="0.8512" style="stop-color:#7272D0"/>
	<stop  offset="0.9792" style="stop-color:#7676D1"/>
</linearGradient>
<path fill="url(#SVGID_12_)" d="M238.558,477.713c-35.894,0-67.38-20.034-91.066-57.921c-15.986-25.578-22.794-50.078-23.086-51.149
	c0,0,21.075,12.094,44.665,25.775c17.626,10.226,35.386,24.56,69.153,25.648c35.062,1.138,64.549-56.363,71.991-76.69l52.617,19.075
	c-0.407,1.132-10.179,27.877-28.608,54.719C307.017,456.775,273.942,477.713,238.558,477.713z"/>
<linearGradient id="SVGID_13_" gradientUnits="userSpaceOnUse" x1="22.4761" y1="243.3125" x2="134.4211" y2="391.4056">
	<stop  offset="0" style="stop-color:#1010A6"/>
	<stop  offset="0.7231" style="stop-color:#6666CC"/>
	<stop  offset="0.7257" style="stop-color:#6666CC"/>
	<stop  offset="0.8512" style="stop-color:#7272D0"/>
	<stop  offset="0.9792" style="stop-color:#7676D1"/>
</linearGradient>
<path fill="url(#SVGID_13_)" d="M32.643,359.943c-18.153-30.967-16.794-68.256,3.916-107.862
	c13.98-26.721,31.673-44.976,32.434-45.772c0,0,0.234,24.29,0.354,51.556c0.108,20.387-3.269,42.947,12.849,72.633
	c16.765,30.822,81.271,27.188,102.581,23.326l10.148,55.047c-1.174,0.209-29.207,5.305-61.682,2.981
	C85.319,408.428,50.539,390.466,32.643,359.943z"/>
<linearGradient id="SVGID_14_" gradientUnits="userSpaceOnUse" x1="123.2075" y1="54.3838" x2="55.5769" y2="224.6304">
	<stop  offset="0" style="stop-color:#1010A6"/>
	<stop  offset="0.7231" style="stop-color:#6666CC"/>
	<stop  offset="0.7257" style="stop-color:#6666CC"/>
	<stop  offset="0.8512" style="stop-color:#7272D0"/>
	<stop  offset="0.9792" style="stop-color:#7676D1"/>
</linearGradient>
<path fill="url(#SVGID_14_)" d="M31.266,120.685c17.854-31.14,67.926-0.39,50.198,28.362c-18.423,29.864,16.8,84.031,30.744,100.592
	L69.5,285.809c-0.778-0.911-19.135-22.692-33.265-52.03C15.388,190.497,13.687,151.394,31.266,120.685z"/>
</svg>
