<?xml version="1.0" encoding="utf-8"?>
<!-- Generator: Adobe Illustrator 16.0.3, SVG Export Plug-In . SVG Version: 6.00 Build 0)  -->
<!DOCTYPE svg PUBLIC "-//W3C//DTD SVG 1.1//EN" "http://www.w3.org/Graphics/SVG/1.1/DTD/svg11.dtd">
<svg version="1.1" id="Layer_1" xmlns="http://www.w3.org/2000/svg" xmlns:xlink="http://www.w3.org/1999/xlink" x="0px" y="0px"
	 width="52.001px" height="56.162px" viewBox="214.5 211.915 52.001 56.162" enable-background="new 214.5 211.915 52.001 56.162"
	 xml:space="preserve">
<g>
	
		<linearGradient id="SVGID_1_" gradientUnits="userSpaceOnUse" x1="293.541" y1="107.1348" x2="319.4653" y2="62.8599" gradientTransform="matrix(1 0 0 -1 -66 325)">
		<stop  offset="0" style="stop-color:#FFFFFF"/>
		<stop  offset="0.1564" style="stop-color:#F9F9F9"/>
		<stop  offset="0.3573" style="stop-color:#E9E9E9"/>
		<stop  offset="0.5824" style="stop-color:#CFCFCF"/>
		<stop  offset="0.8235" style="stop-color:#ABABAB"/>
		<stop  offset="1" style="stop-color:#8B8B8B"/>
	</linearGradient>
	<path fill="url(#SVGID_1_)" d="M240.501,212.915c1.864,0,3.729,0.423,5.144,1.268l14.711,8.792c2.83,1.691,5.146,5.765,5.146,9.052
		v15.938c0,3.287-2.314,7.36-5.146,9.051l-14.711,8.793c-1.414,0.847-3.277,1.27-5.144,1.27c-1.865,0-3.73-0.423-5.145-1.27
		l-14.711-8.793c-2.829-1.688-5.145-5.764-5.145-9.051v-15.938c0-3.287,2.315-7.36,5.145-9.052l14.711-8.792
		C236.771,213.338,238.636,212.915,240.501,212.915 M240.501,211.915c-2.128,0-4.137,0.5-5.658,1.41l-14.711,8.792
		c-3.158,1.888-5.632,6.241-5.632,9.91v15.938c0,3.61,2.527,8.057,5.632,9.909l14.71,8.793c1.522,0.909,3.531,1.41,5.658,1.41
		s4.137-0.501,5.657-1.41l14.71-8.793c3.158-1.886,5.634-6.237,5.634-9.909v-15.938c0-3.608-2.526-8.054-5.634-9.91l-14.711-8.792
		C244.637,212.416,242.628,211.915,240.501,211.915L240.501,211.915z"/>
</g>
</svg>
