<?xml version="1.0" encoding="utf-8"?>
<!-- Generator: Adobe Illustrator 16.0.3, SVG Export Plug-In . SVG Version: 6.00 Build 0)  -->
<!DOCTYPE svg PUBLIC "-//W3C//DTD SVG 1.1//EN" "http://www.w3.org/Graphics/SVG/1.1/DTD/svg11.dtd">
<svg version="1.1" id="Layer_1" xmlns="http://www.w3.org/2000/svg" xmlns:xlink="http://www.w3.org/1999/xlink" x="0px" y="0px"
	 width="50.001px" height="54.162px" viewBox="215.5 212.915 50.001 54.162" enable-background="new 215.5 212.915 50.001 54.162"
	 xml:space="preserve">
<g>
	<path fill="none" d="M245.645,265.809c-2.828,1.691-7.459,1.691-10.289,0l-14.711-8.793c-2.829-1.689-5.145-5.764-5.145-9.051
		v-15.938c0-3.287,2.315-7.36,5.145-9.052l14.711-8.792c2.829-1.691,7.46-1.691,10.289,0l14.711,8.792
		c2.83,1.691,5.146,5.765,5.146,9.052v15.938c0,3.287-2.315,7.36-5.146,9.051L245.645,265.809z"/>
</g>
<path fill="#EA446F" d="M237.242,240.146c2.69,0.482,4.783,2.409,6.05,5.566c0.854,2.133,1.035,4.062,1.042,4.146
	c0,0-1.416-1.189-3-2.531c-1.187-1.004-2.324-2.318-4.842-2.854c-2.612-0.558-5.596,3.356-6.426,4.782l-3.688-2.139
	c0.045-0.078,1.138-1.953,2.88-3.718C231.828,240.797,234.59,239.672,237.242,240.146z"/>
<path fill="#EA446F" d="M242.43,237.479c-1.758,2.104-4.467,2.961-7.838,2.488c-2.274-0.316-4.037-1.122-4.113-1.157
	c0,0,1.736-0.642,3.688-1.351c1.46-0.528,3.164-0.863,4.88-2.78c1.782-1.992-0.13-6.526-0.952-7.954l3.688-2.138
	c0.046,0.078,1.129,1.958,1.794,4.347C244.559,232.459,244.16,235.414,242.43,237.479z"/>
<path fill="#EA446F" d="M242.062,243.432c-0.943-2.565-0.342-5.35,1.742-8.041c1.408-1.815,2.979-2.946,3.047-2.995
	c0,0-0.309,1.823-0.664,3.87c-0.268,1.528-0.824,3.184-0.016,5.625c0.842,2.535,5.729,3.131,7.377,3.127l0.021,4.262
	c-0.092,0.003-2.262,0.009-4.663-0.604C245.359,247.775,242.993,245.961,242.062,243.432z"/>
</svg>
